<mxfile host="app.diagrams.net" modified="2023-12-08T14:26:11.373Z" agent="Mozilla/5.0 (Windows NT 10.0; Win64; x64) AppleWebKit/537.36 (KHTML, like Gecko) Chrome/119.0.0.0 Safari/537.36" etag="PSOajsyeXJ0jImZwRR02" version="22.1.7" type="google">
  <diagram id="Z5OLpLAsLksBXLpLxAP1" name="Page-1">
    <mxGraphModel grid="1" page="1" gridSize="10" guides="1" tooltips="1" connect="1" arrows="1" fold="1" pageScale="1" pageWidth="850" pageHeight="1100" math="0" shadow="0">
      <root>
        <mxCell id="0" />
        <mxCell id="1" parent="0" />
        <mxCell id="R0Q2l2MmQuAHJMRnev2r-56" style="edgeStyle=orthogonalEdgeStyle;rounded=0;orthogonalLoop=1;jettySize=auto;html=1;entryX=-0.003;entryY=0.531;entryDx=0;entryDy=0;entryPerimeter=0;" edge="1" parent="1" source="aFEwpqFZGkhVa3lLTVIJ-1" target="aFEwpqFZGkhVa3lLTVIJ-15">
          <mxGeometry relative="1" as="geometry" />
        </mxCell>
        <mxCell id="aFEwpqFZGkhVa3lLTVIJ-1" value="generateMatchReport()" style="rounded=1;whiteSpace=wrap;html=1;fillColor=#dae8fc;strokeColor=#6c8ebf;" vertex="1" parent="1">
          <mxGeometry x="293" y="499.5" width="160" height="40" as="geometry" />
        </mxCell>
        <mxCell id="R0Q2l2MmQuAHJMRnev2r-148" style="edgeStyle=orthogonalEdgeStyle;rounded=0;orthogonalLoop=1;jettySize=auto;html=1;entryX=0;entryY=0.5;entryDx=0;entryDy=0;" edge="1" parent="1" source="R0Q2l2MmQuAHJMRnev2r-14" target="R0Q2l2MmQuAHJMRnev2r-138">
          <mxGeometry relative="1" as="geometry" />
        </mxCell>
        <mxCell id="R0Q2l2MmQuAHJMRnev2r-14" value="printMatchReport()" style="rounded=1;whiteSpace=wrap;html=1;fillColor=#dae8fc;strokeColor=#6c8ebf;" vertex="1" parent="1">
          <mxGeometry x="502.12" y="800" width="160" height="40" as="geometry" />
        </mxCell>
        <mxCell id="R0Q2l2MmQuAHJMRnev2r-55" value="" style="group;rotation=90;" connectable="0" vertex="1" parent="1">
          <mxGeometry x="308" y="180" width="210" height="520" as="geometry" />
        </mxCell>
        <mxCell id="aFEwpqFZGkhVa3lLTVIJ-15" value="" style="rounded=0;whiteSpace=wrap;html=1;fillColor=#eeeeee;strokeColor=#36393d;" vertex="1" parent="R0Q2l2MmQuAHJMRnev2r-55">
          <mxGeometry x="173.24" y="80" width="201.77" height="490" as="geometry" />
        </mxCell>
        <mxCell id="aFEwpqFZGkhVa3lLTVIJ-5" value="Overall Points Pie Chart&lt;br&gt;(Red Alliance)" style="rounded=0;whiteSpace=wrap;html=1;fillColor=#fff2cc;strokeColor=#d6b656;" vertex="1" parent="R0Q2l2MmQuAHJMRnev2r-55">
          <mxGeometry x="205.01" y="180" width="140" height="40" as="geometry" />
        </mxCell>
        <mxCell id="R0Q2l2MmQuAHJMRnev2r-11" value="Header" style="rounded=0;whiteSpace=wrap;html=1;fillColor=#fff2cc;strokeColor=#d6b656;" vertex="1" parent="R0Q2l2MmQuAHJMRnev2r-55">
          <mxGeometry x="205.01" y="100" width="140" height="30" as="geometry" />
        </mxCell>
        <mxCell id="R0Q2l2MmQuAHJMRnev2r-1" value="Match Report" style="text;html=1;align=left;verticalAlign=middle;resizable=0;points=[];autosize=1;strokeColor=none;fillColor=none;" vertex="1" parent="R0Q2l2MmQuAHJMRnev2r-55">
          <mxGeometry x="173.23999999999998" y="50" width="100" height="30" as="geometry" />
        </mxCell>
        <mxCell id="R0Q2l2MmQuAHJMRnev2r-50" value="Overall Points Pie Chart&lt;br&gt;(Blue Alliance)" style="rounded=0;whiteSpace=wrap;html=1;fillColor=#fff2cc;strokeColor=#d6b656;" vertex="1" parent="R0Q2l2MmQuAHJMRnev2r-55">
          <mxGeometry x="205.01" y="230" width="140" height="40" as="geometry" />
        </mxCell>
        <mxCell id="R0Q2l2MmQuAHJMRnev2r-13" value="Notes" style="rounded=0;whiteSpace=wrap;html=1;fillColor=#fff2cc;strokeColor=#d6b656;" vertex="1" parent="R0Q2l2MmQuAHJMRnev2r-55">
          <mxGeometry x="205.01" y="520" width="140" height="30" as="geometry" />
        </mxCell>
        <mxCell id="aFEwpqFZGkhVa3lLTVIJ-6" value="Bar Chart&lt;br&gt;(Mobility)" style="rounded=0;whiteSpace=wrap;html=1;fillColor=#fff2cc;strokeColor=#d6b656;" vertex="1" parent="R0Q2l2MmQuAHJMRnev2r-55">
          <mxGeometry x="205.01" y="470" width="140" height="40" as="geometry" />
        </mxCell>
        <mxCell id="R0Q2l2MmQuAHJMRnev2r-12" value="Stacked Bar Charts&lt;br&gt;(Auto Charge Station)" style="rounded=0;whiteSpace=wrap;html=1;fillColor=#fff2cc;strokeColor=#d6b656;" vertex="1" parent="R0Q2l2MmQuAHJMRnev2r-55">
          <mxGeometry x="205.01" y="277" width="140" height="38" as="geometry" />
        </mxCell>
        <mxCell id="R0Q2l2MmQuAHJMRnev2r-51" value="Stacked Bar Charts&lt;br&gt;(Tele Charge Station)" style="rounded=0;whiteSpace=wrap;html=1;fillColor=#fff2cc;strokeColor=#d6b656;" vertex="1" parent="R0Q2l2MmQuAHJMRnev2r-55">
          <mxGeometry x="205.01" y="370" width="140" height="40" as="geometry" />
        </mxCell>
        <mxCell id="R0Q2l2MmQuAHJMRnev2r-52" value="Stacked Bar Charts&lt;br&gt;(Cone and Cube %)" style="rounded=0;whiteSpace=wrap;html=1;fillColor=#fff2cc;strokeColor=#d6b656;" vertex="1" parent="R0Q2l2MmQuAHJMRnev2r-55">
          <mxGeometry x="205.01" y="326" width="140" height="34" as="geometry" />
        </mxCell>
        <mxCell id="R0Q2l2MmQuAHJMRnev2r-53" value="Stacked Bar Charts&lt;br&gt;(Alliance Average Points)" style="rounded=0;whiteSpace=wrap;html=1;fillColor=#fff2cc;strokeColor=#d6b656;" vertex="1" parent="R0Q2l2MmQuAHJMRnev2r-55">
          <mxGeometry x="205.01" y="420" width="140" height="40" as="geometry" />
        </mxCell>
        <mxCell id="aFEwpqFZGkhVa3lLTVIJ-4" value="Summary Table" style="rounded=0;whiteSpace=wrap;html=1;fillColor=#fff2cc;strokeColor=#d6b656;" vertex="1" parent="R0Q2l2MmQuAHJMRnev2r-55">
          <mxGeometry x="205.01" y="142" width="140" height="28" as="geometry" />
        </mxCell>
        <mxCell id="R0Q2l2MmQuAHJMRnev2r-58" style="edgeStyle=orthogonalEdgeStyle;rounded=0;orthogonalLoop=1;jettySize=auto;html=1;exitX=1;exitY=0.5;exitDx=0;exitDy=0;entryX=0;entryY=0.5;entryDx=0;entryDy=0;" edge="1" parent="1" target="R0Q2l2MmQuAHJMRnev2r-14">
          <mxGeometry relative="1" as="geometry">
            <mxPoint x="473" y="820" as="sourcePoint" />
          </mxGeometry>
        </mxCell>
        <mxCell id="R0Q2l2MmQuAHJMRnev2r-68" value="" style="group" connectable="0" vertex="1" parent="1">
          <mxGeometry x="-257" y="430" width="160" height="179" as="geometry" />
        </mxCell>
        <mxCell id="R0Q2l2MmQuAHJMRnev2r-69" value="" style="rounded=0;whiteSpace=wrap;html=1;fillColor=#eeeeee;strokeColor=#36393d;" vertex="1" parent="R0Q2l2MmQuAHJMRnev2r-68">
          <mxGeometry x="10" y="30" width="150" height="149" as="geometry" />
        </mxCell>
        <mxCell id="R0Q2l2MmQuAHJMRnev2r-70" value="Select Blue Alliance" style="text;html=1;align=center;verticalAlign=middle;resizable=0;points=[];autosize=1;strokeColor=none;fillColor=none;" vertex="1" parent="R0Q2l2MmQuAHJMRnev2r-68">
          <mxGeometry width="130" height="30" as="geometry" />
        </mxCell>
        <mxCell id="R0Q2l2MmQuAHJMRnev2r-71" value="Team 1" style="shape=parallelogram;perimeter=parallelogramPerimeter;whiteSpace=wrap;html=1;fixedSize=1;rounded=0;fillColor=#e1d5e7;strokeColor=#9673a6;" vertex="1" parent="R0Q2l2MmQuAHJMRnev2r-68">
          <mxGeometry x="20" y="49" width="120" height="30" as="geometry" />
        </mxCell>
        <mxCell id="R0Q2l2MmQuAHJMRnev2r-72" value="Team 2" style="shape=parallelogram;perimeter=parallelogramPerimeter;whiteSpace=wrap;html=1;fixedSize=1;rounded=0;fillColor=#e1d5e7;strokeColor=#9673a6;" vertex="1" parent="R0Q2l2MmQuAHJMRnev2r-68">
          <mxGeometry x="20" y="89" width="120" height="30" as="geometry" />
        </mxCell>
        <mxCell id="R0Q2l2MmQuAHJMRnev2r-73" value="Team 3" style="shape=parallelogram;perimeter=parallelogramPerimeter;whiteSpace=wrap;html=1;fixedSize=1;rounded=0;fillColor=#e1d5e7;strokeColor=#9673a6;" vertex="1" parent="R0Q2l2MmQuAHJMRnev2r-68">
          <mxGeometry x="20" y="129" width="120" height="30" as="geometry" />
        </mxCell>
        <mxCell id="R0Q2l2MmQuAHJMRnev2r-74" value="" style="group" connectable="0" vertex="1" parent="1">
          <mxGeometry x="-620" y="130" width="330" height="240" as="geometry" />
        </mxCell>
        <mxCell id="AUv9VytxsGVCr7RqKR6N-3" value="" style="rounded=0;whiteSpace=wrap;html=1;" vertex="1" parent="R0Q2l2MmQuAHJMRnev2r-74">
          <mxGeometry x="-10" y="-15" width="340" height="255" as="geometry" />
        </mxCell>
        <mxCell id="R0Q2l2MmQuAHJMRnev2r-19" value="" style="rounded=0;whiteSpace=wrap;html=1;fillColor=#eeeeee;strokeColor=#36393d;" vertex="1" parent="R0Q2l2MmQuAHJMRnev2r-74">
          <mxGeometry y="30" width="160" height="190" as="geometry" />
        </mxCell>
        <mxCell id="R0Q2l2MmQuAHJMRnev2r-10" value="Match Number" style="shape=parallelogram;perimeter=parallelogramPerimeter;whiteSpace=wrap;html=1;fixedSize=1;rounded=0;fillColor=#e1d5e7;strokeColor=#9673a6;" vertex="1" parent="R0Q2l2MmQuAHJMRnev2r-74">
          <mxGeometry x="13" y="170" width="140" height="30" as="geometry" />
        </mxCell>
        <mxCell id="R0Q2l2MmQuAHJMRnev2r-16" value="Season" style="shape=parallelogram;perimeter=parallelogramPerimeter;whiteSpace=wrap;html=1;fixedSize=1;rounded=0;fillColor=#e1d5e7;strokeColor=#9673a6;" vertex="1" parent="R0Q2l2MmQuAHJMRnev2r-74">
          <mxGeometry x="13" y="50" width="140" height="30" as="geometry" />
        </mxCell>
        <mxCell id="R0Q2l2MmQuAHJMRnev2r-17" value="Event Code" style="shape=parallelogram;perimeter=parallelogramPerimeter;whiteSpace=wrap;html=1;fixedSize=1;rounded=0;fillColor=#e1d5e7;strokeColor=#9673a6;" vertex="1" parent="R0Q2l2MmQuAHJMRnev2r-74">
          <mxGeometry x="13" y="90" width="140" height="30" as="geometry" />
        </mxCell>
        <mxCell id="R0Q2l2MmQuAHJMRnev2r-18" value="TournamentLevel" style="shape=parallelogram;perimeter=parallelogramPerimeter;whiteSpace=wrap;html=1;fixedSize=1;rounded=0;fillColor=#e1d5e7;strokeColor=#9673a6;" vertex="1" parent="R0Q2l2MmQuAHJMRnev2r-74">
          <mxGeometry x="13" y="130" width="140" height="30" as="geometry" />
        </mxCell>
        <mxCell id="R0Q2l2MmQuAHJMRnev2r-20" value="Number" style="text;html=1;align=left;verticalAlign=middle;resizable=0;points=[];autosize=1;strokeColor=none;fillColor=none;" vertex="1" parent="R0Q2l2MmQuAHJMRnev2r-74">
          <mxGeometry width="70" height="30" as="geometry" />
        </mxCell>
        <mxCell id="R0Q2l2MmQuAHJMRnev2r-153" style="edgeStyle=orthogonalEdgeStyle;rounded=0;orthogonalLoop=1;jettySize=auto;html=1;exitX=1;exitY=0.5;exitDx=0;exitDy=0;entryX=0;entryY=0.5;entryDx=0;entryDy=0;" edge="1" parent="1" source="R0Q2l2MmQuAHJMRnev2r-75" target="R0Q2l2MmQuAHJMRnev2r-132">
          <mxGeometry relative="1" as="geometry" />
        </mxCell>
        <mxCell id="R0Q2l2MmQuAHJMRnev2r-75" value="" style="rounded=0;whiteSpace=wrap;html=1;fillColor=#eeeeee;strokeColor=#36393d;" vertex="1" parent="1">
          <mxGeometry x="-247" y="650" width="150" height="60" as="geometry" />
        </mxCell>
        <mxCell id="R0Q2l2MmQuAHJMRnev2r-76" value="Report Configuration" style="text;html=1;align=left;verticalAlign=middle;resizable=0;points=[];autosize=1;strokeColor=none;fillColor=none;" vertex="1" parent="1">
          <mxGeometry x="-247" y="620" width="130" height="30" as="geometry" />
        </mxCell>
        <mxCell id="R0Q2l2MmQuAHJMRnev2r-103" style="edgeStyle=orthogonalEdgeStyle;rounded=0;orthogonalLoop=1;jettySize=auto;html=1;exitX=1;exitY=0.5;exitDx=0;exitDy=0;entryX=0;entryY=0.5;entryDx=0;entryDy=0;" edge="1" parent="1" source="R0Q2l2MmQuAHJMRnev2r-77" target="R0Q2l2MmQuAHJMRnev2r-22">
          <mxGeometry relative="1" as="geometry">
            <Array as="points">
              <mxPoint x="-317" y="560" />
              <mxPoint x="-270" y="560" />
              <mxPoint x="-270" y="344" />
            </Array>
          </mxGeometry>
        </mxCell>
        <mxCell id="R0Q2l2MmQuAHJMRnev2r-104" style="edgeStyle=orthogonalEdgeStyle;rounded=0;orthogonalLoop=1;jettySize=auto;html=1;exitX=1;exitY=0.5;exitDx=0;exitDy=0;entryX=0;entryY=0.5;entryDx=0;entryDy=0;" edge="1" parent="1" source="R0Q2l2MmQuAHJMRnev2r-77" target="R0Q2l2MmQuAHJMRnev2r-69">
          <mxGeometry relative="1" as="geometry">
            <Array as="points">
              <mxPoint x="-315" y="560" />
              <mxPoint x="-270" y="560" />
              <mxPoint x="-270" y="534" />
            </Array>
          </mxGeometry>
        </mxCell>
        <mxCell id="R0Q2l2MmQuAHJMRnev2r-162" style="edgeStyle=orthogonalEdgeStyle;rounded=0;orthogonalLoop=1;jettySize=auto;html=1;exitX=1;exitY=0.5;exitDx=0;exitDy=0;entryX=0;entryY=0.25;entryDx=0;entryDy=0;" edge="1" parent="1" source="R0Q2l2MmQuAHJMRnev2r-77" target="R0Q2l2MmQuAHJMRnev2r-149">
          <mxGeometry relative="1" as="geometry">
            <Array as="points">
              <mxPoint x="-317" y="560" />
              <mxPoint x="-270" y="560" />
              <mxPoint x="-270" y="210" />
            </Array>
          </mxGeometry>
        </mxCell>
        <mxCell id="R0Q2l2MmQuAHJMRnev2r-77" value="getMatchData()" style="rounded=1;whiteSpace=wrap;html=1;fillColor=#dae8fc;strokeColor=#6c8ebf;" vertex="1" parent="1">
          <mxGeometry x="-410" y="550" width="110" height="30" as="geometry" />
        </mxCell>
        <mxCell id="R0Q2l2MmQuAHJMRnev2r-107" style="edgeStyle=orthogonalEdgeStyle;rounded=0;orthogonalLoop=1;jettySize=auto;html=1;exitX=1;exitY=0.5;exitDx=0;exitDy=0;entryX=0;entryY=0.5;entryDx=0;entryDy=0;" edge="1" parent="1" source="R0Q2l2MmQuAHJMRnev2r-83" target="R0Q2l2MmQuAHJMRnev2r-105">
          <mxGeometry relative="1" as="geometry" />
        </mxCell>
        <mxCell id="R0Q2l2MmQuAHJMRnev2r-83" value="getTeamData()" style="rounded=1;whiteSpace=wrap;html=1;fillColor=#dae8fc;strokeColor=#6c8ebf;" vertex="1" parent="1">
          <mxGeometry x="-47" y="291" width="100" height="26" as="geometry" />
        </mxCell>
        <mxCell id="R0Q2l2MmQuAHJMRnev2r-108" style="edgeStyle=orthogonalEdgeStyle;rounded=0;orthogonalLoop=1;jettySize=auto;html=1;exitX=1;exitY=0.5;exitDx=0;exitDy=0;entryX=0;entryY=0.5;entryDx=0;entryDy=0;" edge="1" parent="1" source="R0Q2l2MmQuAHJMRnev2r-86" target="R0Q2l2MmQuAHJMRnev2r-106">
          <mxGeometry relative="1" as="geometry" />
        </mxCell>
        <mxCell id="R0Q2l2MmQuAHJMRnev2r-86" value="getTeamData()" style="rounded=1;whiteSpace=wrap;html=1;fillColor=#dae8fc;strokeColor=#6c8ebf;" vertex="1" parent="1">
          <mxGeometry x="-47" y="329" width="100" height="30" as="geometry" />
        </mxCell>
        <mxCell id="R0Q2l2MmQuAHJMRnev2r-110" style="edgeStyle=orthogonalEdgeStyle;rounded=0;orthogonalLoop=1;jettySize=auto;html=1;exitX=1;exitY=0.5;exitDx=0;exitDy=0;entryX=0;entryY=0.5;entryDx=0;entryDy=0;" edge="1" parent="1" source="R0Q2l2MmQuAHJMRnev2r-87" target="R0Q2l2MmQuAHJMRnev2r-109">
          <mxGeometry relative="1" as="geometry" />
        </mxCell>
        <mxCell id="R0Q2l2MmQuAHJMRnev2r-87" value="getTeamData()" style="rounded=1;whiteSpace=wrap;html=1;fillColor=#dae8fc;strokeColor=#6c8ebf;" vertex="1" parent="1">
          <mxGeometry x="-47" y="368" width="100" height="31" as="geometry" />
        </mxCell>
        <mxCell id="R0Q2l2MmQuAHJMRnev2r-91" style="edgeStyle=orthogonalEdgeStyle;rounded=0;orthogonalLoop=1;jettySize=auto;html=1;exitX=1;exitY=0.5;exitDx=0;exitDy=0;entryX=0;entryY=0.5;entryDx=0;entryDy=0;" edge="1" parent="1" source="R0Q2l2MmQuAHJMRnev2r-64" target="R0Q2l2MmQuAHJMRnev2r-83">
          <mxGeometry relative="1" as="geometry" />
        </mxCell>
        <mxCell id="R0Q2l2MmQuAHJMRnev2r-92" style="edgeStyle=orthogonalEdgeStyle;rounded=0;orthogonalLoop=1;jettySize=auto;html=1;exitX=1;exitY=0.5;exitDx=0;exitDy=0;entryX=0;entryY=0.5;entryDx=0;entryDy=0;" edge="1" parent="1" source="R0Q2l2MmQuAHJMRnev2r-65" target="R0Q2l2MmQuAHJMRnev2r-86">
          <mxGeometry relative="1" as="geometry" />
        </mxCell>
        <mxCell id="R0Q2l2MmQuAHJMRnev2r-93" style="edgeStyle=orthogonalEdgeStyle;rounded=0;orthogonalLoop=1;jettySize=auto;html=1;exitX=1;exitY=0.5;exitDx=0;exitDy=0;entryX=0;entryY=0.5;entryDx=0;entryDy=0;" edge="1" parent="1" source="R0Q2l2MmQuAHJMRnev2r-66" target="R0Q2l2MmQuAHJMRnev2r-87">
          <mxGeometry relative="1" as="geometry" />
        </mxCell>
        <mxCell id="R0Q2l2MmQuAHJMRnev2r-94" style="edgeStyle=orthogonalEdgeStyle;rounded=0;orthogonalLoop=1;jettySize=auto;html=1;exitX=0.5;exitY=1;exitDx=0;exitDy=0;entryX=0.5;entryY=0;entryDx=0;entryDy=0;" edge="1" parent="1" source="aFEwpqFZGkhVa3lLTVIJ-15" target="R0Q2l2MmQuAHJMRnev2r-14">
          <mxGeometry relative="1" as="geometry" />
        </mxCell>
        <mxCell id="R0Q2l2MmQuAHJMRnev2r-96" value="" style="edgeStyle=orthogonalEdgeStyle;rounded=0;orthogonalLoop=1;jettySize=auto;html=1;" edge="1" parent="1" source="R0Q2l2MmQuAHJMRnev2r-95" target="R0Q2l2MmQuAHJMRnev2r-14">
          <mxGeometry relative="1" as="geometry" />
        </mxCell>
        <mxCell id="R0Q2l2MmQuAHJMRnev2r-95" value="Print Report&lt;br&gt;Button" style="verticalLabelPosition=middle;verticalAlign=middle;html=1;shape=trapezoid;perimeter=trapezoidPerimeter;whiteSpace=wrap;size=0.23;arcSize=10;flipV=1;labelPosition=center;align=center;fillColor=#d5e8d4;strokeColor=#82b366;" vertex="1" parent="1">
          <mxGeometry x="363" y="790" width="100" height="60" as="geometry" />
        </mxCell>
        <mxCell id="R0Q2l2MmQuAHJMRnev2r-101" style="edgeStyle=orthogonalEdgeStyle;rounded=0;orthogonalLoop=1;jettySize=auto;html=1;exitX=1;exitY=0.5;exitDx=0;exitDy=0;" edge="1" parent="1" source="R0Q2l2MmQuAHJMRnev2r-100" target="R0Q2l2MmQuAHJMRnev2r-77">
          <mxGeometry relative="1" as="geometry" />
        </mxCell>
        <mxCell id="R0Q2l2MmQuAHJMRnev2r-100" value="Find Match&lt;br&gt;Button" style="verticalLabelPosition=middle;verticalAlign=middle;html=1;shape=trapezoid;perimeter=trapezoidPerimeter;whiteSpace=wrap;size=0.23;arcSize=10;flipV=1;labelPosition=center;align=center;fillColor=#d5e8d4;strokeColor=#82b366;" vertex="1" parent="1">
          <mxGeometry x="-540" y="535" width="100" height="60" as="geometry" />
        </mxCell>
        <mxCell id="R0Q2l2MmQuAHJMRnev2r-111" style="edgeStyle=orthogonalEdgeStyle;rounded=0;orthogonalLoop=1;jettySize=auto;html=1;exitX=1;exitY=0.5;exitDx=0;exitDy=0;entryX=0;entryY=0.5;entryDx=0;entryDy=0;" edge="1" parent="1" source="R0Q2l2MmQuAHJMRnev2r-105" target="aFEwpqFZGkhVa3lLTVIJ-1">
          <mxGeometry relative="1" as="geometry">
            <Array as="points">
              <mxPoint x="273" y="304" />
              <mxPoint x="273" y="520" />
            </Array>
          </mxGeometry>
        </mxCell>
        <mxCell id="R0Q2l2MmQuAHJMRnev2r-105" value="Red Team 1" style="shape=parallelogram;html=1;strokeWidth=2;perimeter=parallelogramPerimeter;whiteSpace=wrap;rounded=1;arcSize=12;size=0.23;fillColor=#f8cecc;strokeColor=#b85450;" vertex="1" parent="1">
          <mxGeometry x="97" y="289.5" width="140" height="29" as="geometry" />
        </mxCell>
        <mxCell id="R0Q2l2MmQuAHJMRnev2r-112" style="edgeStyle=orthogonalEdgeStyle;rounded=0;orthogonalLoop=1;jettySize=auto;html=1;exitX=1;exitY=0.5;exitDx=0;exitDy=0;entryX=0;entryY=0.5;entryDx=0;entryDy=0;" edge="1" parent="1" source="R0Q2l2MmQuAHJMRnev2r-106" target="aFEwpqFZGkhVa3lLTVIJ-1">
          <mxGeometry relative="1" as="geometry">
            <Array as="points">
              <mxPoint x="273" y="344" />
              <mxPoint x="273" y="520" />
            </Array>
          </mxGeometry>
        </mxCell>
        <mxCell id="R0Q2l2MmQuAHJMRnev2r-106" value="Red Team 2" style="shape=parallelogram;html=1;strokeWidth=2;perimeter=parallelogramPerimeter;whiteSpace=wrap;rounded=1;arcSize=12;size=0.23;fillColor=#f8cecc;strokeColor=#b85450;" vertex="1" parent="1">
          <mxGeometry x="97" y="329" width="140" height="29" as="geometry" />
        </mxCell>
        <mxCell id="R0Q2l2MmQuAHJMRnev2r-113" style="edgeStyle=orthogonalEdgeStyle;rounded=0;orthogonalLoop=1;jettySize=auto;html=1;exitX=1;exitY=0.5;exitDx=0;exitDy=0;entryX=0;entryY=0.5;entryDx=0;entryDy=0;" edge="1" parent="1" source="R0Q2l2MmQuAHJMRnev2r-109" target="aFEwpqFZGkhVa3lLTVIJ-1">
          <mxGeometry relative="1" as="geometry">
            <Array as="points">
              <mxPoint x="273" y="384" />
              <mxPoint x="273" y="520" />
            </Array>
          </mxGeometry>
        </mxCell>
        <mxCell id="R0Q2l2MmQuAHJMRnev2r-109" value="Red Team 3" style="shape=parallelogram;html=1;strokeWidth=2;perimeter=parallelogramPerimeter;whiteSpace=wrap;rounded=1;arcSize=12;size=0.23;fillColor=#f8cecc;strokeColor=#b85450;" vertex="1" parent="1">
          <mxGeometry x="97" y="369" width="140" height="29" as="geometry" />
        </mxCell>
        <mxCell id="R0Q2l2MmQuAHJMRnev2r-114" style="edgeStyle=orthogonalEdgeStyle;rounded=0;orthogonalLoop=1;jettySize=auto;html=1;exitX=1;exitY=0.5;exitDx=0;exitDy=0;entryX=0;entryY=0.5;entryDx=0;entryDy=0;" edge="1" parent="1" source="R0Q2l2MmQuAHJMRnev2r-115" target="R0Q2l2MmQuAHJMRnev2r-120">
          <mxGeometry relative="1" as="geometry" />
        </mxCell>
        <mxCell id="R0Q2l2MmQuAHJMRnev2r-115" value="getTeamData()" style="rounded=1;whiteSpace=wrap;html=1;fillColor=#dae8fc;strokeColor=#6c8ebf;" vertex="1" parent="1">
          <mxGeometry x="-47" y="481.5" width="100" height="26" as="geometry" />
        </mxCell>
        <mxCell id="R0Q2l2MmQuAHJMRnev2r-116" style="edgeStyle=orthogonalEdgeStyle;rounded=0;orthogonalLoop=1;jettySize=auto;html=1;exitX=1;exitY=0.5;exitDx=0;exitDy=0;entryX=0;entryY=0.5;entryDx=0;entryDy=0;" edge="1" parent="1" source="R0Q2l2MmQuAHJMRnev2r-117" target="R0Q2l2MmQuAHJMRnev2r-121">
          <mxGeometry relative="1" as="geometry" />
        </mxCell>
        <mxCell id="R0Q2l2MmQuAHJMRnev2r-117" value="getTeamData()" style="rounded=1;whiteSpace=wrap;html=1;fillColor=#dae8fc;strokeColor=#6c8ebf;" vertex="1" parent="1">
          <mxGeometry x="-47" y="519.5" width="100" height="30" as="geometry" />
        </mxCell>
        <mxCell id="R0Q2l2MmQuAHJMRnev2r-118" style="edgeStyle=orthogonalEdgeStyle;rounded=0;orthogonalLoop=1;jettySize=auto;html=1;exitX=1;exitY=0.5;exitDx=0;exitDy=0;entryX=0;entryY=0.5;entryDx=0;entryDy=0;" edge="1" parent="1" source="R0Q2l2MmQuAHJMRnev2r-119" target="R0Q2l2MmQuAHJMRnev2r-122">
          <mxGeometry relative="1" as="geometry" />
        </mxCell>
        <mxCell id="R0Q2l2MmQuAHJMRnev2r-119" value="getTeamData()" style="rounded=1;whiteSpace=wrap;html=1;fillColor=#dae8fc;strokeColor=#6c8ebf;" vertex="1" parent="1">
          <mxGeometry x="-47" y="558.5" width="100" height="31" as="geometry" />
        </mxCell>
        <mxCell id="R0Q2l2MmQuAHJMRnev2r-126" style="edgeStyle=orthogonalEdgeStyle;rounded=0;orthogonalLoop=1;jettySize=auto;html=1;exitX=1;exitY=0.5;exitDx=0;exitDy=0;entryX=0;entryY=0.5;entryDx=0;entryDy=0;" edge="1" parent="1" source="R0Q2l2MmQuAHJMRnev2r-120" target="aFEwpqFZGkhVa3lLTVIJ-1">
          <mxGeometry relative="1" as="geometry">
            <Array as="points">
              <mxPoint x="273" y="495" />
              <mxPoint x="273" y="520" />
            </Array>
          </mxGeometry>
        </mxCell>
        <mxCell id="R0Q2l2MmQuAHJMRnev2r-120" value="Blue Team 1" style="shape=parallelogram;html=1;strokeWidth=2;perimeter=parallelogramPerimeter;whiteSpace=wrap;rounded=1;arcSize=12;size=0.23;fillColor=#f8cecc;strokeColor=#b85450;" vertex="1" parent="1">
          <mxGeometry x="87" y="480" width="140" height="29" as="geometry" />
        </mxCell>
        <mxCell id="R0Q2l2MmQuAHJMRnev2r-127" style="edgeStyle=orthogonalEdgeStyle;rounded=0;orthogonalLoop=1;jettySize=auto;html=1;exitX=1;exitY=0.5;exitDx=0;exitDy=0;entryX=0;entryY=0.5;entryDx=0;entryDy=0;" edge="1" parent="1" source="R0Q2l2MmQuAHJMRnev2r-121" target="aFEwpqFZGkhVa3lLTVIJ-1">
          <mxGeometry relative="1" as="geometry">
            <Array as="points">
              <mxPoint x="273" y="534" />
              <mxPoint x="273" y="520" />
            </Array>
          </mxGeometry>
        </mxCell>
        <mxCell id="R0Q2l2MmQuAHJMRnev2r-121" value="Blue Team 2" style="shape=parallelogram;html=1;strokeWidth=2;perimeter=parallelogramPerimeter;whiteSpace=wrap;rounded=1;arcSize=12;size=0.23;fillColor=#f8cecc;strokeColor=#b85450;" vertex="1" parent="1">
          <mxGeometry x="87" y="519.5" width="140" height="29" as="geometry" />
        </mxCell>
        <mxCell id="R0Q2l2MmQuAHJMRnev2r-128" style="edgeStyle=orthogonalEdgeStyle;rounded=0;orthogonalLoop=1;jettySize=auto;html=1;exitX=1;exitY=0.5;exitDx=0;exitDy=0;entryX=0;entryY=0.5;entryDx=0;entryDy=0;" edge="1" parent="1" source="R0Q2l2MmQuAHJMRnev2r-122" target="aFEwpqFZGkhVa3lLTVIJ-1">
          <mxGeometry relative="1" as="geometry">
            <Array as="points">
              <mxPoint x="273" y="574" />
              <mxPoint x="273" y="520" />
            </Array>
          </mxGeometry>
        </mxCell>
        <mxCell id="R0Q2l2MmQuAHJMRnev2r-122" value="Blue Team 3" style="shape=parallelogram;html=1;strokeWidth=2;perimeter=parallelogramPerimeter;whiteSpace=wrap;rounded=1;arcSize=12;size=0.23;fillColor=#f8cecc;strokeColor=#b85450;" vertex="1" parent="1">
          <mxGeometry x="87" y="559.5" width="140" height="29" as="geometry" />
        </mxCell>
        <mxCell id="R0Q2l2MmQuAHJMRnev2r-123" style="edgeStyle=orthogonalEdgeStyle;rounded=0;orthogonalLoop=1;jettySize=auto;html=1;exitX=1;exitY=0.5;exitDx=0;exitDy=0;entryX=0;entryY=0.5;entryDx=0;entryDy=0;" edge="1" parent="1" source="R0Q2l2MmQuAHJMRnev2r-71" target="R0Q2l2MmQuAHJMRnev2r-115">
          <mxGeometry relative="1" as="geometry" />
        </mxCell>
        <mxCell id="R0Q2l2MmQuAHJMRnev2r-124" style="edgeStyle=orthogonalEdgeStyle;rounded=0;orthogonalLoop=1;jettySize=auto;html=1;exitX=1;exitY=0.5;exitDx=0;exitDy=0;entryX=0;entryY=0.5;entryDx=0;entryDy=0;" edge="1" parent="1" source="R0Q2l2MmQuAHJMRnev2r-72" target="R0Q2l2MmQuAHJMRnev2r-117">
          <mxGeometry relative="1" as="geometry" />
        </mxCell>
        <mxCell id="R0Q2l2MmQuAHJMRnev2r-125" style="edgeStyle=orthogonalEdgeStyle;rounded=0;orthogonalLoop=1;jettySize=auto;html=1;exitX=1;exitY=0.5;exitDx=0;exitDy=0;entryX=0;entryY=0.5;entryDx=0;entryDy=0;" edge="1" parent="1" source="R0Q2l2MmQuAHJMRnev2r-73" target="R0Q2l2MmQuAHJMRnev2r-119">
          <mxGeometry relative="1" as="geometry" />
        </mxCell>
        <mxCell id="R0Q2l2MmQuAHJMRnev2r-130" value="Layout Name" style="shape=parallelogram;perimeter=parallelogramPerimeter;whiteSpace=wrap;html=1;fixedSize=1;fillColor=#e1d5e7;strokeColor=#9673a6;" vertex="1" parent="1">
          <mxGeometry x="-237" y="665" width="120" height="30" as="geometry" />
        </mxCell>
        <mxCell id="R0Q2l2MmQuAHJMRnev2r-135" style="edgeStyle=orthogonalEdgeStyle;rounded=0;orthogonalLoop=1;jettySize=auto;html=1;exitX=1;exitY=0.5;exitDx=0;exitDy=0;entryX=0;entryY=0.5;entryDx=0;entryDy=0;" edge="1" parent="1" source="R0Q2l2MmQuAHJMRnev2r-132" target="R0Q2l2MmQuAHJMRnev2r-133">
          <mxGeometry relative="1" as="geometry" />
        </mxCell>
        <mxCell id="R0Q2l2MmQuAHJMRnev2r-132" value="getMatchReportLayout()" style="rounded=1;whiteSpace=wrap;html=1;fillColor=#dae8fc;strokeColor=#6c8ebf;" vertex="1" parent="1">
          <mxGeometry x="-47" y="665" width="140" height="31" as="geometry" />
        </mxCell>
        <mxCell id="R0Q2l2MmQuAHJMRnev2r-136" style="edgeStyle=orthogonalEdgeStyle;rounded=0;orthogonalLoop=1;jettySize=auto;html=1;exitX=1;exitY=0.5;exitDx=0;exitDy=0;entryX=0;entryY=0.5;entryDx=0;entryDy=0;" edge="1" parent="1" source="R0Q2l2MmQuAHJMRnev2r-133" target="aFEwpqFZGkhVa3lLTVIJ-1">
          <mxGeometry relative="1" as="geometry" />
        </mxCell>
        <mxCell id="R0Q2l2MmQuAHJMRnev2r-133" value="Report Layout" style="shape=parallelogram;html=1;strokeWidth=2;perimeter=parallelogramPerimeter;whiteSpace=wrap;rounded=1;arcSize=12;size=0.23;fillColor=#f8cecc;strokeColor=#b85450;" vertex="1" parent="1">
          <mxGeometry x="113" y="666" width="140" height="29" as="geometry" />
        </mxCell>
        <mxCell id="R0Q2l2MmQuAHJMRnev2r-138" value="Match Report" style="rounded=0;whiteSpace=wrap;html=1;fillColor=#fff2cc;strokeColor=#d6b656;" vertex="1" parent="1">
          <mxGeometry x="720" y="790" width="120" height="60" as="geometry" />
        </mxCell>
        <mxCell id="R0Q2l2MmQuAHJMRnev2r-139" value="Paper" style="text;html=1;align=left;verticalAlign=middle;resizable=0;points=[];autosize=1;strokeColor=none;fillColor=none;" vertex="1" parent="1">
          <mxGeometry x="720" y="760" width="60" height="30" as="geometry" />
        </mxCell>
        <mxCell id="R0Q2l2MmQuAHJMRnev2r-143" style="edgeStyle=orthogonalEdgeStyle;rounded=0;orthogonalLoop=1;jettySize=auto;html=1;exitX=1;exitY=0.5;exitDx=0;exitDy=0;entryX=0;entryY=0.5;entryDx=0;entryDy=0;" edge="1" parent="1" source="R0Q2l2MmQuAHJMRnev2r-142" target="R0Q2l2MmQuAHJMRnev2r-130">
          <mxGeometry relative="1" as="geometry">
            <mxPoint x="-307" y="740" as="targetPoint" />
            <Array as="points">
              <mxPoint x="-647" y="235" />
              <mxPoint x="-647" y="680" />
            </Array>
          </mxGeometry>
        </mxCell>
        <mxCell id="R0Q2l2MmQuAHJMRnev2r-144" style="edgeStyle=orthogonalEdgeStyle;rounded=0;orthogonalLoop=1;jettySize=auto;html=1;exitX=1;exitY=0.5;exitDx=0;exitDy=0;entryX=0;entryY=0.5;entryDx=0;entryDy=0;" edge="1" parent="1" source="R0Q2l2MmQuAHJMRnev2r-142" target="R0Q2l2MmQuAHJMRnev2r-16">
          <mxGeometry relative="1" as="geometry">
            <Array as="points">
              <mxPoint x="-647" y="234" />
              <mxPoint x="-647" y="195" />
            </Array>
          </mxGeometry>
        </mxCell>
        <mxCell id="R0Q2l2MmQuAHJMRnev2r-146" style="edgeStyle=orthogonalEdgeStyle;rounded=0;orthogonalLoop=1;jettySize=auto;html=1;exitX=1;exitY=0.5;exitDx=0;exitDy=0;entryX=0;entryY=0.5;entryDx=0;entryDy=0;" edge="1" parent="1" source="R0Q2l2MmQuAHJMRnev2r-142" target="R0Q2l2MmQuAHJMRnev2r-17">
          <mxGeometry relative="1" as="geometry">
            <Array as="points">
              <mxPoint x="-647" y="234" />
            </Array>
          </mxGeometry>
        </mxCell>
        <mxCell id="R0Q2l2MmQuAHJMRnev2r-147" style="edgeStyle=orthogonalEdgeStyle;rounded=0;orthogonalLoop=1;jettySize=auto;html=1;exitX=1;exitY=0.5;exitDx=0;exitDy=0;entryX=0;entryY=0.5;entryDx=0;entryDy=0;" edge="1" parent="1" source="R0Q2l2MmQuAHJMRnev2r-142" target="R0Q2l2MmQuAHJMRnev2r-18">
          <mxGeometry relative="1" as="geometry">
            <Array as="points">
              <mxPoint x="-647" y="234" />
              <mxPoint x="-647" y="275" />
            </Array>
          </mxGeometry>
        </mxCell>
        <mxCell id="R0Q2l2MmQuAHJMRnev2r-142" value="getDefaults()" style="rounded=1;whiteSpace=wrap;html=1;fillColor=#dae8fc;strokeColor=#6c8ebf;" vertex="1" parent="1">
          <mxGeometry x="-757" y="219" width="90" height="31" as="geometry" />
        </mxCell>
        <mxCell id="R0Q2l2MmQuAHJMRnev2r-150" style="edgeStyle=orthogonalEdgeStyle;rounded=0;orthogonalLoop=1;jettySize=auto;html=1;exitX=1;exitY=0.5;exitDx=0;exitDy=0;entryX=0;entryY=0.5;entryDx=0;entryDy=0;" edge="1" parent="1" source="R0Q2l2MmQuAHJMRnev2r-149" target="aFEwpqFZGkhVa3lLTVIJ-1">
          <mxGeometry relative="1" as="geometry" />
        </mxCell>
        <mxCell id="R0Q2l2MmQuAHJMRnev2r-149" value="Match Data" style="shape=parallelogram;html=1;strokeWidth=2;perimeter=parallelogramPerimeter;whiteSpace=wrap;rounded=1;arcSize=12;size=0.23;fillColor=#f8cecc;strokeColor=#b85450;" vertex="1" parent="1">
          <mxGeometry x="113" y="201" width="140" height="29" as="geometry" />
        </mxCell>
        <mxCell id="R0Q2l2MmQuAHJMRnev2r-167" style="edgeStyle=orthogonalEdgeStyle;rounded=0;orthogonalLoop=1;jettySize=auto;html=1;exitX=0.5;exitY=1;exitDx=0;exitDy=0;entryX=1;entryY=0.5;entryDx=0;entryDy=0;entryPerimeter=0;" edge="1" parent="1" source="R0Q2l2MmQuAHJMRnev2r-155" target="R0Q2l2MmQuAHJMRnev2r-161">
          <mxGeometry relative="1" as="geometry" />
        </mxCell>
        <mxCell id="R0Q2l2MmQuAHJMRnev2r-155" value="" style="rounded=0;whiteSpace=wrap;html=1;fillColor=#eeeeee;strokeColor=#36393d;" vertex="1" parent="1">
          <mxGeometry x="-440" y="160" width="140" height="70" as="geometry" />
        </mxCell>
        <mxCell id="R0Q2l2MmQuAHJMRnev2r-157" value="Match Code" style="shape=parallelogram;perimeter=parallelogramPerimeter;whiteSpace=wrap;html=1;fixedSize=1;rounded=0;fillColor=#e1d5e7;strokeColor=#9673a6;" vertex="1" parent="1">
          <mxGeometry x="-427" y="180" width="117" height="30" as="geometry" />
        </mxCell>
        <mxCell id="R0Q2l2MmQuAHJMRnev2r-160" value="Code" style="text;html=1;align=left;verticalAlign=middle;resizable=0;points=[];autosize=1;strokeColor=none;fillColor=none;" vertex="1" parent="1">
          <mxGeometry x="-440" y="130" width="50" height="30" as="geometry" />
        </mxCell>
        <mxCell id="R0Q2l2MmQuAHJMRnev2r-164" style="edgeStyle=orthogonalEdgeStyle;rounded=0;orthogonalLoop=1;jettySize=auto;html=1;exitX=0.5;exitY=1;exitDx=0;exitDy=0;exitPerimeter=0;" edge="1" parent="1" source="R0Q2l2MmQuAHJMRnev2r-161" target="R0Q2l2MmQuAHJMRnev2r-100">
          <mxGeometry relative="1" as="geometry" />
        </mxCell>
        <mxCell id="R0Q2l2MmQuAHJMRnev2r-161" value="" style="verticalLabelPosition=bottom;verticalAlign=top;html=1;shape=mxgraph.flowchart.summing_function;" vertex="1" parent="1">
          <mxGeometry x="-507.5" y="464.5" width="35" height="35" as="geometry" />
        </mxCell>
        <mxCell id="R0Q2l2MmQuAHJMRnev2r-166" style="edgeStyle=orthogonalEdgeStyle;rounded=0;orthogonalLoop=1;jettySize=auto;html=1;exitX=0.5;exitY=1;exitDx=0;exitDy=0;entryX=0;entryY=0.5;entryDx=0;entryDy=0;entryPerimeter=0;" edge="1" parent="1" source="R0Q2l2MmQuAHJMRnev2r-19" target="R0Q2l2MmQuAHJMRnev2r-161">
          <mxGeometry relative="1" as="geometry" />
        </mxCell>
        <mxCell id="R0Q2l2MmQuAHJMRnev2r-170" style="edgeStyle=orthogonalEdgeStyle;rounded=0;orthogonalLoop=1;jettySize=auto;html=1;exitX=1;exitY=0.5;exitDx=0;exitDy=0;exitPerimeter=0;entryX=0;entryY=0.5;entryDx=0;entryDy=0;" edge="1" parent="1" source="R0Q2l2MmQuAHJMRnev2r-169" target="R0Q2l2MmQuAHJMRnev2r-142">
          <mxGeometry relative="1" as="geometry" />
        </mxCell>
        <mxCell id="R0Q2l2MmQuAHJMRnev2r-169" value="on page load" style="strokeWidth=2;html=1;shape=mxgraph.flowchart.start_2;whiteSpace=wrap;fillColor=#d5e8d4;strokeColor=#82b366;" vertex="1" parent="1">
          <mxGeometry x="-840" y="199.5" width="70" height="70" as="geometry" />
        </mxCell>
        <mxCell id="R0Q2l2MmQuAHJMRnev2r-67" value="" style="group" connectable="0" vertex="1" parent="1">
          <mxGeometry x="-250" y="240" width="160" height="179" as="geometry" />
        </mxCell>
        <mxCell id="R0Q2l2MmQuAHJMRnev2r-22" value="" style="rounded=0;whiteSpace=wrap;html=1;fillColor=#eeeeee;strokeColor=#36393d;" vertex="1" parent="R0Q2l2MmQuAHJMRnev2r-67">
          <mxGeometry x="10" y="30" width="150" height="149" as="geometry" />
        </mxCell>
        <mxCell id="R0Q2l2MmQuAHJMRnev2r-23" value="Select Red Alliance" style="text;html=1;align=center;verticalAlign=middle;resizable=0;points=[];autosize=1;strokeColor=none;fillColor=none;" vertex="1" parent="R0Q2l2MmQuAHJMRnev2r-67">
          <mxGeometry width="130" height="30" as="geometry" />
        </mxCell>
        <mxCell id="R0Q2l2MmQuAHJMRnev2r-64" value="Team 1" style="shape=parallelogram;perimeter=parallelogramPerimeter;whiteSpace=wrap;html=1;fixedSize=1;rounded=0;fillColor=#e1d5e7;strokeColor=#9673a6;" vertex="1" parent="R0Q2l2MmQuAHJMRnev2r-67">
          <mxGeometry x="20" y="49" width="120" height="30" as="geometry" />
        </mxCell>
        <mxCell id="R0Q2l2MmQuAHJMRnev2r-65" value="Team 2" style="shape=parallelogram;perimeter=parallelogramPerimeter;whiteSpace=wrap;html=1;fixedSize=1;rounded=0;fillColor=#e1d5e7;strokeColor=#9673a6;" vertex="1" parent="R0Q2l2MmQuAHJMRnev2r-67">
          <mxGeometry x="20" y="89" width="120" height="30" as="geometry" />
        </mxCell>
        <mxCell id="R0Q2l2MmQuAHJMRnev2r-66" value="Team 3" style="shape=parallelogram;perimeter=parallelogramPerimeter;whiteSpace=wrap;html=1;fixedSize=1;rounded=0;fillColor=#e1d5e7;strokeColor=#9673a6;" vertex="1" parent="R0Q2l2MmQuAHJMRnev2r-67">
          <mxGeometry x="20" y="129" width="120" height="30" as="geometry" />
        </mxCell>
        <mxCell id="AUv9VytxsGVCr7RqKR6N-5" value="Select Match" style="text;html=1;strokeColor=none;fillColor=none;align=left;verticalAlign=middle;whiteSpace=wrap;rounded=0;" vertex="1" parent="1">
          <mxGeometry x="-630" y="90" width="110" height="30" as="geometry" />
        </mxCell>
      </root>
    </mxGraphModel>
  </diagram>
</mxfile>
